<svg width="26" height="19" viewBox="0 0 26 19" fill="none" xmlns="http://www.w3.org/2000/svg">
<path fill-rule="evenodd" clip-rule="evenodd" d="M0 1.5C0 0.671573 0.671573 0 1.5 0H24.5C25.3284 0 26 0.671573 26 1.5C26 2.32843 25.3284 3 24.5 3H1.5C0.671573 3 0 2.32843 0 1.5Z" fill="#D3E1DA"/>
<path fill-rule="evenodd" clip-rule="evenodd" d="M0 9.5C0 8.67157 0.671573 8 1.5 8H24.5C25.3284 8 26 8.67157 26 9.5C26 10.3284 25.3284 11 24.5 11H1.5C0.671573 11 0 10.3284 0 9.5Z" fill="#D3E1DA"/>
<path fill-rule="evenodd" clip-rule="evenodd" d="M0 17.5C0 16.6716 0.671573 16 1.5 16H24.5C25.3284 16 26 16.6716 26 17.5C26 18.3284 25.3284 19 24.5 19H1.5C0.671573 19 0 18.3284 0 17.5Z" fill="#D3E1DA"/>
</svg>
